<?xml version="1.0" standalone="no"?>
<!DOCTYPE svg PUBLIC "-//W3C//DTD SVG 20010904//EN"
 "http://www.w3.org/TR/2001/REC-SVG-20010904/DTD/svg10.dtd">
<svg version="1.0" xmlns="http://www.w3.org/2000/svg"
 width="512.000000pt" height="512.000000pt" viewBox="0 0 512.000000 512.000000"
 preserveAspectRatio="xMidYMid meet">
<metadata>
Created by potrace 1.14, written by Peter Selinger 2001-2017
</metadata>
<g transform="translate(0.000000,512.000000) scale(0.100000,-0.100000)"
fill="#000000" stroke="none">
<path d="M2332 5109 c-580 -52 -1129 -304 -1551 -714 -215 -208 -369 -418
-502 -680 -162 -321 -245 -625 -271 -993 -32 -447 61 -902 271 -1317 133 -262
287 -472 502 -680 377 -366 839 -600 1364 -690 406 -70 887 -26 1280 117 345
126 651 317 914 573 215 208 369 418 502 680 210 415 303 870 271 1317 -26
368 -109 672 -271 993 -133 262 -287 472 -502 680 -536 520 -1266 780 -2007
714z m-1147 -2449 c187 -577 343 -1050 346 -1050 3 0 158 473 344 1050 l339
1050 56 0 57 0 138 -1112 c75 -612 140 -1128 143 -1146 l5 -33 -139 3 -138 3
-111 897 c-61 493 -113 899 -116 902 -2 3 -100 -291 -217 -652 -117 -361 -248
-769 -293 -905 l-80 -248 -106 3 -106 3 -296 897 c-261 792 -297 892 -303 860
-4 -20 -53 -415 -108 -877 -55 -462 -103 -850 -106 -862 -4 -22 -44 -34 -44
-14 0 5 63 516 140 1136 77 620 140 1131 140 1136 0 5 26 9 58 9 l57 0 340
-1050z m2043 1023 c5 -16 157 -444 337 -953 180 -509 330 -930 334 -937 6 -11
673 1515 716 1637 25 70 23 180 -4 226 -16 27 -19 40 -11 48 18 18 57 -36 70
-98 12 -58 8 -101 -17 -181 -28 -87 -852 -2008 -865 -2017 -7 -4 -15 -8 -18
-8 -3 0 -189 514 -414 1143 -225 628 -411 1148 -414 1155 -3 9 28 12 136 12
l140 0 10 -27z"/>
</g>
</svg>
